<mxfile host="app.diagrams.net" modified="2020-08-25T12:08:13.299Z" agent="5.0 (X11; Linux x86_64) AppleWebKit/537.36 (KHTML, like Gecko) Chrome/84.0.4147.125 Safari/537.36" etag="XhLezyTfsae5QGfhSobS" version="13.5.8" type="github">
  <diagram id="SHlIxUWun1tNeiMXr0mh" name="Page-1">
    <mxGraphModel dx="1203" dy="493" grid="1" gridSize="10" guides="1" tooltips="1" connect="1" arrows="1" fold="1" page="1" pageScale="1" pageWidth="1169" pageHeight="827" math="0" shadow="0">
      <root>
        <mxCell id="0" />
        <mxCell id="1" parent="0" />
        <mxCell id="ZNjrKugkNybo0TKN56oL-1" value="" style="rounded=0;whiteSpace=wrap;html=1;fillColor=none;glass=0;strokeWidth=2;perimeter=rectanglePerimeter;" vertex="1" parent="1">
          <mxGeometry x="40" y="200" width="1100" height="80" as="geometry" />
        </mxCell>
        <mxCell id="ZNjrKugkNybo0TKN56oL-2" value="1" style="text;html=1;strokeColor=none;fillColor=none;align=center;verticalAlign=middle;whiteSpace=wrap;rounded=0;" vertex="1" parent="1">
          <mxGeometry x="60" y="170" width="40" height="20" as="geometry" />
        </mxCell>
        <mxCell id="ZNjrKugkNybo0TKN56oL-3" value="2" style="text;html=1;strokeColor=none;fillColor=none;align=center;verticalAlign=middle;whiteSpace=wrap;rounded=0;" vertex="1" parent="1">
          <mxGeometry x="100" y="170" width="40" height="20" as="geometry" />
        </mxCell>
        <mxCell id="ZNjrKugkNybo0TKN56oL-4" value="3" style="text;html=1;strokeColor=none;fillColor=none;align=center;verticalAlign=middle;whiteSpace=wrap;rounded=0;" vertex="1" parent="1">
          <mxGeometry x="140" y="170" width="40" height="20" as="geometry" />
        </mxCell>
        <mxCell id="ZNjrKugkNybo0TKN56oL-5" value="10" style="text;html=1;strokeColor=none;fillColor=none;align=center;verticalAlign=middle;whiteSpace=wrap;rounded=0;" vertex="1" parent="1">
          <mxGeometry x="420" y="170" width="40" height="20" as="geometry" />
        </mxCell>
        <mxCell id="ZNjrKugkNybo0TKN56oL-6" value="11" style="text;html=1;strokeColor=none;fillColor=none;align=center;verticalAlign=middle;whiteSpace=wrap;rounded=0;" vertex="1" parent="1">
          <mxGeometry x="460" y="170" width="40" height="20" as="geometry" />
        </mxCell>
        <mxCell id="ZNjrKugkNybo0TKN56oL-9" value="7" style="text;html=1;strokeColor=none;fillColor=none;align=center;verticalAlign=middle;whiteSpace=wrap;rounded=0;" vertex="1" parent="1">
          <mxGeometry x="300" y="170" width="40" height="20" as="geometry" />
        </mxCell>
        <mxCell id="ZNjrKugkNybo0TKN56oL-10" value="12" style="text;html=1;strokeColor=none;fillColor=none;align=center;verticalAlign=middle;whiteSpace=wrap;rounded=0;" vertex="1" parent="1">
          <mxGeometry x="500" y="170" width="40" height="20" as="geometry" />
        </mxCell>
        <mxCell id="ZNjrKugkNybo0TKN56oL-11" value="5" style="text;html=1;strokeColor=none;fillColor=none;align=center;verticalAlign=middle;whiteSpace=wrap;rounded=0;" vertex="1" parent="1">
          <mxGeometry x="220" y="170" width="40" height="20" as="geometry" />
        </mxCell>
        <mxCell id="ZNjrKugkNybo0TKN56oL-13" value="4" style="text;html=1;strokeColor=none;fillColor=none;align=center;verticalAlign=middle;whiteSpace=wrap;rounded=0;" vertex="1" parent="1">
          <mxGeometry x="180" y="170" width="40" height="20" as="geometry" />
        </mxCell>
        <mxCell id="ZNjrKugkNybo0TKN56oL-14" value="6" style="text;html=1;strokeColor=none;fillColor=none;align=center;verticalAlign=middle;whiteSpace=wrap;rounded=0;" vertex="1" parent="1">
          <mxGeometry x="260" y="170" width="40" height="20" as="geometry" />
        </mxCell>
        <mxCell id="ZNjrKugkNybo0TKN56oL-15" value="0" style="text;html=1;strokeColor=none;fillColor=none;align=center;verticalAlign=middle;whiteSpace=wrap;rounded=0;" vertex="1" parent="1">
          <mxGeometry x="20" y="170" width="40" height="20" as="geometry" />
        </mxCell>
        <mxCell id="ZNjrKugkNybo0TKN56oL-16" value="8" style="text;html=1;strokeColor=none;fillColor=none;align=center;verticalAlign=middle;whiteSpace=wrap;rounded=0;" vertex="1" parent="1">
          <mxGeometry x="340" y="170" width="40" height="20" as="geometry" />
        </mxCell>
        <mxCell id="ZNjrKugkNybo0TKN56oL-22" value="9" style="text;html=1;strokeColor=none;fillColor=none;align=center;verticalAlign=middle;whiteSpace=wrap;rounded=0;" vertex="1" parent="1">
          <mxGeometry x="380" y="170" width="40" height="20" as="geometry" />
        </mxCell>
        <mxCell id="ZNjrKugkNybo0TKN56oL-23" value="16" style="text;html=1;strokeColor=none;fillColor=none;align=center;verticalAlign=middle;whiteSpace=wrap;rounded=0;" vertex="1" parent="1">
          <mxGeometry x="660" y="170" width="40" height="20" as="geometry" />
        </mxCell>
        <mxCell id="ZNjrKugkNybo0TKN56oL-24" value="18" style="text;html=1;strokeColor=none;fillColor=none;align=center;verticalAlign=middle;whiteSpace=wrap;rounded=0;" vertex="1" parent="1">
          <mxGeometry x="740" y="170" width="40" height="20" as="geometry" />
        </mxCell>
        <mxCell id="ZNjrKugkNybo0TKN56oL-28" value="17" style="text;html=1;strokeColor=none;fillColor=none;align=center;verticalAlign=middle;whiteSpace=wrap;rounded=0;" vertex="1" parent="1">
          <mxGeometry x="700" y="170" width="40" height="20" as="geometry" />
        </mxCell>
        <mxCell id="ZNjrKugkNybo0TKN56oL-29" value="15" style="text;html=1;strokeColor=none;fillColor=none;align=center;verticalAlign=middle;whiteSpace=wrap;rounded=0;" vertex="1" parent="1">
          <mxGeometry x="620" y="170" width="40" height="20" as="geometry" />
        </mxCell>
        <mxCell id="ZNjrKugkNybo0TKN56oL-30" value="13" style="text;html=1;strokeColor=none;fillColor=none;align=center;verticalAlign=middle;whiteSpace=wrap;rounded=0;" vertex="1" parent="1">
          <mxGeometry x="540" y="170" width="40" height="20" as="geometry" />
        </mxCell>
        <mxCell id="ZNjrKugkNybo0TKN56oL-31" value="14" style="text;html=1;strokeColor=none;fillColor=none;align=center;verticalAlign=middle;whiteSpace=wrap;rounded=0;" vertex="1" parent="1">
          <mxGeometry x="580" y="170" width="40" height="20" as="geometry" />
        </mxCell>
        <mxCell id="ZNjrKugkNybo0TKN56oL-34" value="19" style="text;html=1;strokeColor=none;fillColor=none;align=center;verticalAlign=middle;whiteSpace=wrap;rounded=0;" vertex="1" parent="1">
          <mxGeometry x="780" y="170" width="40" height="20" as="geometry" />
        </mxCell>
        <mxCell id="ZNjrKugkNybo0TKN56oL-35" value="20" style="text;html=1;strokeColor=none;fillColor=none;align=center;verticalAlign=middle;whiteSpace=wrap;rounded=0;" vertex="1" parent="1">
          <mxGeometry x="820" y="170" width="40" height="20" as="geometry" />
        </mxCell>
        <mxCell id="ZNjrKugkNybo0TKN56oL-36" value="24" style="text;html=1;strokeColor=none;fillColor=none;align=center;verticalAlign=middle;whiteSpace=wrap;rounded=0;" vertex="1" parent="1">
          <mxGeometry x="980" y="170" width="40" height="20" as="geometry" />
        </mxCell>
        <mxCell id="ZNjrKugkNybo0TKN56oL-37" value="26" style="text;html=1;strokeColor=none;fillColor=none;align=center;verticalAlign=middle;whiteSpace=wrap;rounded=0;" vertex="1" parent="1">
          <mxGeometry x="1060" y="170" width="40" height="20" as="geometry" />
        </mxCell>
        <mxCell id="ZNjrKugkNybo0TKN56oL-38" value="25" style="text;html=1;strokeColor=none;fillColor=none;align=center;verticalAlign=middle;whiteSpace=wrap;rounded=0;" vertex="1" parent="1">
          <mxGeometry x="1020" y="170" width="40" height="20" as="geometry" />
        </mxCell>
        <mxCell id="ZNjrKugkNybo0TKN56oL-39" value="23" style="text;html=1;strokeColor=none;fillColor=none;align=center;verticalAlign=middle;whiteSpace=wrap;rounded=0;" vertex="1" parent="1">
          <mxGeometry x="940" y="170" width="40" height="20" as="geometry" />
        </mxCell>
        <mxCell id="ZNjrKugkNybo0TKN56oL-40" value="21" style="text;html=1;strokeColor=none;fillColor=none;align=center;verticalAlign=middle;whiteSpace=wrap;rounded=0;" vertex="1" parent="1">
          <mxGeometry x="860" y="170" width="40" height="20" as="geometry" />
        </mxCell>
        <mxCell id="ZNjrKugkNybo0TKN56oL-41" value="22" style="text;html=1;strokeColor=none;fillColor=none;align=center;verticalAlign=middle;whiteSpace=wrap;rounded=0;" vertex="1" parent="1">
          <mxGeometry x="900" y="170" width="40" height="20" as="geometry" />
        </mxCell>
        <mxCell id="ZNjrKugkNybo0TKN56oL-43" value="27" style="text;html=1;strokeColor=none;fillColor=none;align=center;verticalAlign=middle;whiteSpace=wrap;rounded=0;" vertex="1" parent="1">
          <mxGeometry x="1100" y="170" width="40" height="20" as="geometry" />
        </mxCell>
      </root>
    </mxGraphModel>
  </diagram>
</mxfile>
